<?xml version="1.0"?>
<svg xmlns="http://www.w3.org/2000/svg" height="512px" viewBox="0 -76 512 512" width="512px" class=""><g><path d="m451 240h61v-210h-61c0-16.542969-13.457031-30-30-30h-270c-16.542969 0-30 13.457031-30 30h-60v60h-61v90h61v60h60c0 14.617188 10.511719 26.816406 24.367188 29.460938l-30.179688 90.539062h87.023438l30-30h107.574218l30 30h87.023438l-30.175782-90.539062c13.855469-2.644532 24.367188-14.84375 24.367188-29.460938zm31-180v150h-31v-150zm-331-30h270v210h-270zm-121 120v-30h31v30zm61 60v-150h30v150zm291.214844 120-30-30h-132.429688l-30 30h-32.972656l20-60h218.375l20 60zm0 0" data-original="#000000" class="active-path" data-old_color="#000000" fill="#7B7BE9"/><path d="m181 60h210v30h-210zm0 0" data-original="#000000" class="active-path" data-old_color="#000000" fill="#7B7BE9"/><path d="m181 120h210v30h-210zm0 0" data-original="#000000" class="active-path" data-old_color="#000000" fill="#7B7BE9"/><path d="m181 180h210v30h-210zm0 0" data-original="#000000" class="active-path" data-old_color="#000000" fill="#7B7BE9"/></g> </svg>
