<svg xmlns="http://www.w3.org/2000/svg" width="1240" height="1240"><path d="M629.5 316.607c-2.75.785-7.206 1.872-9.903 2.414s-6.254 1.659-7.904 2.482c-1.65.823-3.573 1.497-4.274 1.497-.701 0-4.344 1.633-8.096 3.629a1083.408 1083.408 0 01-9.823 5.172c-1.65.848-3.225 1.804-3.5 2.123-.275.32-3.087 2.272-6.25 4.339-3.163 2.067-5.75 4.203-5.75 4.747 0 .545-.466.99-1.034.99-1.32 0-14.966 13.601-14.966 14.916 0 .541-.565 1.344-1.256 1.784-1.265.806-6.388 7.312-8.244 10.47-6.134 10.44-7.501 12.909-7.506 13.565-.004.421-.727 2.115-1.609 3.765-.881 1.65-1.957 4.125-2.39 5.5-.433 1.375-1.096 3.258-1.473 4.185-.547 1.345.19 1.927 3.646 2.877 2.383.655 6.132 1.969 8.332 2.918 2.2.95 5.397 1.994 7.104 2.32 2.957.564 3.214.344 5.388-4.604 3.459-7.874 7.142-15.013 8.654-16.775.744-.868 1.354-2.106 1.354-2.75 0-.644.353-1.171.784-1.171.432 0 1.541-1.238 2.464-2.75 3.426-5.609 17.724-19.235 23.875-22.75l7.063-4.037c13.9-7.943 25.809-11.352 42.314-12.113 23.871-1.1 38.194 2.088 57.108 12.711 6.013 3.377 11.392 7.188 11.392 8.072 0 .477.467.867 1.039.867.571 0 2.912 1.8 5.201 4 2.29 2.2 4.522 4 4.961 4 .44 0 .799.659.799 1.465 0 .805.9 1.946 2 2.535 1.1.589 2 1.73 2 2.535 0 .806.444 1.465.987 1.465.86 0 3.189 3.173 7.705 10.5 1.943 3.152 8.308 16.655 8.308 17.625 0 .481.563.871 1.25.866 1.438-.01 20.619-6.527 21.343-7.251.9-.899-4.635-13.768-9.996-23.24-2.367-4.182-5.136-8.158-8.802-12.639-2.087-2.551-3.795-4.907-3.795-5.234C748 355.56 719.978 332 717.521 332c-.309 0-2.343-1.125-4.521-2.5s-4.435-2.5-5.015-2.5c-.581 0-2.219-.763-3.642-1.695-3.521-2.307-10.875-4.789-23.079-7.789-9.145-2.248-12.182-2.506-28.5-2.427-12.582.062-19.82.534-23.264 1.518m16 45.105c-4.742.653-19.518 4.298-21.344 5.266-.911.483-3.732 1.821-6.269 2.973-4.954 2.25-13.418 7.602-15.892 10.049-.834.825-2.636 2.4-4.006 3.5-7.207 5.791-19.527 24.831-20.208 31.23-.24 2.256.19 2.745 2.919 3.321 1.759.372 5.584 1.6 8.5 2.73 9.761 3.783 10.27 3.74 12.357-1.048 3.624-8.312 14.233-21.72 17.193-21.729.688-.002 1.25-.411 1.25-.909 0-.497 2.561-2.35 5.692-4.116 13.089-7.387 29.399-9.278 43.164-5.004 7.728 2.4 15.116 6.081 17.17 8.557.671.807 1.578 1.468 2.017 1.468.44 0 2.86 2.061 5.378 4.579 2.518 2.518 4.579 4.938 4.579 5.378 0 .439.662 1.348 1.471 2.019.81.672 2.722 3.866 4.25 7.098 3.267 6.91 4.343 7.187 13.279 3.426 3.267-1.375 6.658-2.5 7.536-2.5 3.183 0 5.507-1.942 4.523-3.78-.507-.946-2.32-4.717-4.03-8.38-1.71-3.664-3.766-7.206-4.569-7.873-.803-.667-1.46-1.639-1.46-2.161s-.562-1.517-1.25-2.212c-.687-.695-2.15-2.493-3.25-3.995-1.614-2.204-8.309-8.239-16.103-14.515-.607-.489-3.982-2.319-7.5-4.067-3.518-1.748-7.207-3.61-8.197-4.137-1.833-.977-5.378-1.805-18.7-4.368-7.331-1.41-12.454-1.631-18.5-.8m-1 45.898c-2.2.837-4.9 1.785-6 2.108-2.69.789-7.445 4.028-10.5 7.155-3.263 3.338-8 10.809-8 12.615 0 1.389 7.935 5.512 10.607 5.512.744 0 3.274.788 5.623 1.75 4.129 1.692 1.544 1.766-78.517 2.25-56.092.339-83.017.838-83.5 1.549-.392.576-2.682 1.624-5.088 2.327-2.406.704-5.304 2.144-6.439 3.202-1.135 1.057-2.779 1.922-3.654 1.922s-2.252.974-3.061 2.165c-.809 1.191-2.197 2.929-3.084 3.863-.887.934-1.92 3.335-2.295 5.335-.376 2-1.112 3.637-1.637 3.637-.525 0-.955.9-.955 2s-.45 2-1 2-1 2.25-1 5v5h-77v78h-80v116h80v74h77v6c0 3.333.444 6 1 6 .55 0 1 .675 1 1.5s.43 1.5.955 1.5c.525 0 1.269 1.677 1.653 3.726.667 3.552 2.908 6.227 10.912 13.024 1.458 1.237 3.962 2.25 5.565 2.25 1.603 0 2.915.45 2.915 1s.788 1.007 1.75 1.015c4.375.039 4.731 1.311 2.768 9.906-1.015 4.444-2.15 8.079-2.522 8.079-.373 0-1.232 2.475-1.909 5.5s-1.591 5.5-2.031 5.5c-.44 0-1.088 1.8-1.44 4-.352 2.2-.999 4-1.439 4-.44 0-1.617 3.6-2.616 8-.998 4.4-2.136 8-2.529 8-.392 0-1.306 2.475-2.032 5.5s-1.636 5.5-2.023 5.5c-.387 0-1.277 2.7-1.977 6-.7 3.3-1.599 6-1.997 6-.398 0-.99 2.58-1.315 5.734-.325 3.154-1.063 5.891-1.64 6.083-.576.192-1.048 1.212-1.048 2.266 0 1.055-.392 1.917-.871 1.917s-1.176 2.7-1.549 6c-.483 4.263-1.099 6-2.13 6-.935 0-1.45 1.035-1.45 2.917 0 1.604-.395 3.066-.878 3.25-.483.183-1.194 1.795-1.58 3.583l-.701 3.25h55.068c50.662 0 55.229-.138 57.08-1.722 1.106-.947 2.011-2.221 2.011-2.831 0-.61 1.21-1.748 2.69-2.528 1.479-.78 6.649-5.356 11.49-10.169 4.84-4.812 9.255-8.75 9.81-8.75.556 0 1.01-.465 1.01-1.034 0-1.294 5.728-6.966 7.034-6.966.532 0 .966-.675.966-1.5 0-1.319 8.503-1.5 70.531-1.5 64.067 0 70.589.148 71.153 1.618.832 2.168 8.87 10.382 10.159 10.382.562 0 1.308.9 1.657 2s1.07 2 1.601 2c1.244 0 6.899 5.766 6.899 7.034 0 .532.685.966 1.521.966.837 0 2.034 1.125 2.661 2.5.626 1.375 1.678 2.5 2.337 2.5.66 0 2.725 1.798 4.59 3.995l3.391 3.995 55.75.005c48.891.004 55.75-.18 55.75-1.495 0-.825-.4-1.5-.889-1.5-.488 0-1.184-1.575-1.545-3.5s-1.054-3.5-1.54-3.5-1.398-2.475-2.026-5.5c-.628-3.025-1.486-5.5-1.907-5.5-.421 0-1.588-3.6-2.593-8s-2.142-8-2.527-8c-.385 0-1.273-2.7-1.973-6-.7-3.3-1.572-6-1.936-6-.365 0-1.504-3.375-2.531-7.5-1.027-4.125-2.242-7.5-2.7-7.5-.458 0-.833-1.575-.833-3.5s-.45-3.5-1-3.5-1-1.125-1-2.5-.45-2.5-1-2.5-1-1.575-1-3.5-.392-3.5-.872-3.5-1.16-1.8-1.512-4c-.352-2.2-1.002-4-1.445-4-.965 0-4.202-13.347-4.184-17.25.007-1.513-.437-2.75-.987-2.75s-1-1.116-1-2.481c0-1.812.674-2.65 2.5-3.108 1.375-.345 2.5-.978 2.5-1.406 0-.428 2.025-1.082 4.5-1.453 2.616-.392 4.5-1.206 4.5-1.944 0-.699 1.125-1.872 2.5-2.608s2.5-1.937 2.5-2.669.675-1.331 1.5-1.331 1.5-.418 1.5-.929c0-.51.594-1.523 1.321-2.25 1.767-1.767 4.679-10.479 4.679-13.999 0-1.552.45-2.822 1-2.822s1-1.125 1-2.5V745h79V477h-79v-2.417c0-1.329-.337-2.566-.75-2.75-.413-.183-1.518-3.342-2.456-7.02-.938-3.678-2.513-7.654-3.5-8.834-.987-1.181-2.582-3.078-3.544-4.216-.962-1.138-1.75-2.45-1.75-2.916 0-.466-.9-.847-2-.847s-2-.45-2-1-.9-1-2-1-2-.415-2-.922c0-.508-1.687-1.473-3.75-2.145-2.062-.673-4.071-1.72-4.463-2.328-.508-.786-25.605-1.249-87-1.605-95.463-.553-88.268.059-71.011-6.044 6.895-2.438 7.222-3.391 3.14-9.166-1.054-1.49-1.916-2.997-1.916-3.348 0-.767-5.97-6.442-6.777-6.442-.311 0-1.341-.702-2.289-1.56-2.737-2.476-15.005-6.4-19.934-6.375-2.475.013-6.3.708-8.5 1.545m1.897 25.215c-1.157.967-2.635 2.752-3.285 3.966L641.93 439h11.535c6.344 0 11.535-.24 11.535-.533 0-.294-1.56-2.094-3.467-4-3.005-3.005-4.103-3.463-8.25-3.434-3.059.022-5.541.667-6.886 1.792M484 611v134h345V477H484v134m-78 0v96h40V515h-40v96m115-76v20h269v-40H521v20m346 76v96h40V515h-40v96m-538 .5V631h40v-39h-40v19.5m192 0V631h269v-39H521v19.5m0 77.5v18h269v-36H521v18m-5 96c0 1.1-.45 2-1 2s-1 .862-1 1.917c0 1.054-.375 2.066-.832 2.25-1.085.434-5.168 16.865-5.168 20.797 0 1.67-.45 3.036-1 3.036s-1 .675-1 1.5-.394 1.5-.876 1.5-1.085 2.516-1.34 5.592c-.255 3.076-.945 5.889-1.532 6.252-.588.363-1.385 2.347-1.772 4.408-.386 2.062-1.064 3.748-1.506 3.748-.442 0-1.599 3.375-2.572 7.5-.972 4.125-2.135 7.5-2.585 7.5-.449 0-.817.9-.817 2s-.45 2-1 2-1 .9-1 2c0 1.938.667 2 21.393 2h21.394l9.606-9.421c5.284-5.181 9.607-9.83 9.607-10.331 0-.501 1.125-1.512 2.5-2.248 1.375-.736 2.5-1.712 2.5-2.169 0-.457.675-.831 1.5-.831s1.5-.435 1.5-.967c0-1.165 6.731-8.033 7.873-8.033.443 0 1.319-1.125 1.945-2.5l1.139-2.5 83.772.015c46.074.009 84.266.346 84.871.75.605.404 1.634 1.748 2.285 2.985.652 1.237 1.845 2.25 2.65 2.25.806 0 1.465.439 1.465.976 0 1.24 14.829 16.024 16.073 16.024.51 0 .927.433.927.962 0 1.324 7.991 9.43 10.75 10.906 1.237.661 2.25 1.862 2.25 2.667 0 1.243 3.42 1.465 22.611 1.465h22.612l-.703-3.748c-.387-2.061-1.058-3.973-1.491-4.25-.434-.276-1.364-3.089-2.068-6.252-.703-3.163-1.625-5.75-2.048-5.75-.423 0-1.323-2.475-2-5.5s-1.587-5.5-2.022-5.5c-.435 0-1.322-2.7-1.971-6s-1.519-6-1.933-6c-.414 0-1.548-3.375-2.52-7.5-.971-4.125-2.087-7.5-2.48-7.5-.392 0-1.287-2.7-1.987-6-.7-3.3-1.622-6-2.049-6-.426 0-1.079-1.8-1.451-4l-.676-4H656.412C516.667 783 516 783.009 516 785" fill="undefined" fill-rule="evenodd"/></svg>